<mxfile host="65bd71144e">
    <diagram id="FtEbee-XCXTfJkGimnTI" name="Page-1">
        <mxGraphModel dx="1514" dy="1438" grid="1" gridSize="10" guides="1" tooltips="1" connect="1" arrows="1" fold="1" page="1" pageScale="1" pageWidth="850" pageHeight="1100" math="0" shadow="0">
            <root>
                <mxCell id="0"/>
                <mxCell id="1" parent="0"/>
                <mxCell id="13" value="" style="ellipse;whiteSpace=wrap;html=1;fontSize=22;shadow=0;" vertex="1" parent="1">
                    <mxGeometry x="325" y="40" width="980" height="410" as="geometry"/>
                </mxCell>
                <mxCell id="16" value="" style="ellipse;whiteSpace=wrap;html=1;fontSize=22;shadow=0;" vertex="1" parent="1">
                    <mxGeometry x="925" y="505" width="330" height="210" as="geometry"/>
                </mxCell>
                <mxCell id="15" value="" style="ellipse;whiteSpace=wrap;html=1;fontSize=22;shadow=0;" vertex="1" parent="1">
                    <mxGeometry x="550" y="540" width="350" height="235" as="geometry"/>
                </mxCell>
                <mxCell id="14" value="" style="ellipse;whiteSpace=wrap;html=1;fontSize=22;shadow=0;" vertex="1" parent="1">
                    <mxGeometry x="220" y="485" width="330" height="210" as="geometry"/>
                </mxCell>
                <mxCell id="3" value="Dotted lines indicate Routes&lt;br&gt;Solid Lines indicate component nest&lt;br&gt;Elispse groupings are all components on the same route" style="text;html=1;align=center;verticalAlign=middle;resizable=0;points=[];autosize=1;strokeColor=none;fillColor=none;fontSize=22;" vertex="1" parent="1">
                    <mxGeometry x="1030" y="395" width="570" height="90" as="geometry"/>
                </mxCell>
                <mxCell id="8" value="Home Page" style="whiteSpace=wrap;html=1;fontSize=22;" vertex="1" parent="1">
                    <mxGeometry x="760" y="70" width="120" height="60" as="geometry"/>
                </mxCell>
                <mxCell id="9" value="About Page" style="whiteSpace=wrap;html=1;fontSize=22;" vertex="1" parent="1">
                    <mxGeometry x="325" y="530" width="120" height="60" as="geometry"/>
                </mxCell>
                <mxCell id="10" value="Add Bites Page" style="whiteSpace=wrap;html=1;fontSize=22;" vertex="1" parent="1">
                    <mxGeometry x="1020" y="560" width="120" height="60" as="geometry"/>
                </mxCell>
                <mxCell id="12" value="All Bites Page" style="whiteSpace=wrap;html=1;fontSize=22;" vertex="1" parent="1">
                    <mxGeometry x="665" y="580" width="120" height="60" as="geometry"/>
                </mxCell>
                <mxCell id="18" value="" style="endArrow=none;dashed=1;html=1;fontSize=22;entryX=0.5;entryY=1;entryDx=0;entryDy=0;exitX=0.583;exitY=-0.067;exitDx=0;exitDy=0;exitPerimeter=0;" edge="1" parent="1" source="12" target="8">
                    <mxGeometry width="50" height="50" relative="1" as="geometry">
                        <mxPoint x="770" y="530" as="sourcePoint"/>
                        <mxPoint x="630" y="420" as="targetPoint"/>
                        <Array as="points">
                            <mxPoint x="690" y="330"/>
                        </Array>
                    </mxGeometry>
                </mxCell>
                <mxCell id="19" value="" style="endArrow=none;dashed=1;html=1;dashPattern=1 3;strokeWidth=2;fontSize=22;exitX=0.567;exitY=0;exitDx=0;exitDy=0;exitPerimeter=0;entryX=0.092;entryY=1.033;entryDx=0;entryDy=0;entryPerimeter=0;" edge="1" parent="1" source="9" target="8">
                    <mxGeometry width="50" height="50" relative="1" as="geometry">
                        <mxPoint x="770" y="530" as="sourcePoint"/>
                        <mxPoint x="820" y="480" as="targetPoint"/>
                        <Array as="points">
                            <mxPoint x="480" y="430"/>
                        </Array>
                    </mxGeometry>
                </mxCell>
                <mxCell id="22" value="" style="endArrow=none;dashed=1;html=1;fontSize=22;entryX=0.817;entryY=1.033;entryDx=0;entryDy=0;entryPerimeter=0;exitX=0.125;exitY=-0.033;exitDx=0;exitDy=0;exitPerimeter=0;" edge="1" parent="1" source="10" target="8">
                    <mxGeometry width="50" height="50" relative="1" as="geometry">
                        <mxPoint x="770" y="530" as="sourcePoint"/>
                        <mxPoint x="820" y="480" as="targetPoint"/>
                        <Array as="points">
                            <mxPoint x="950" y="490"/>
                            <mxPoint x="770" y="330"/>
                        </Array>
                    </mxGeometry>
                </mxCell>
                <mxCell id="24" value="NavBar" style="whiteSpace=wrap;html=1;shadow=0;fontSize=22;" vertex="1" parent="1">
                    <mxGeometry x="460" y="205" width="120" height="60" as="geometry"/>
                </mxCell>
                <mxCell id="25" value="RecentBitesList" style="whiteSpace=wrap;html=1;shadow=0;fontSize=22;" vertex="1" parent="1">
                    <mxGeometry x="980" y="130" width="180" height="60" as="geometry"/>
                </mxCell>
                <mxCell id="26" value="Bite" style="whiteSpace=wrap;html=1;shadow=0;fontSize=22;" vertex="1" parent="1">
                    <mxGeometry x="1030" y="250" width="120" height="60" as="geometry"/>
                </mxCell>
                <mxCell id="27" value="Header" style="whiteSpace=wrap;html=1;shadow=0;fontSize=22;" vertex="1" parent="1">
                    <mxGeometry x="590" y="120" width="120" height="60" as="geometry"/>
                </mxCell>
                <mxCell id="31" value="" style="endArrow=classic;html=1;fontSize=22;entryX=0.75;entryY=0;entryDx=0;entryDy=0;" edge="1" parent="1" source="8" target="27">
                    <mxGeometry width="50" height="50" relative="1" as="geometry">
                        <mxPoint x="770" y="240" as="sourcePoint"/>
                        <mxPoint x="820" y="180" as="targetPoint"/>
                        <Array as="points">
                            <mxPoint x="720" y="90"/>
                        </Array>
                    </mxGeometry>
                </mxCell>
                <mxCell id="32" value="" style="endArrow=classic;html=1;fontSize=22;exitX=-0.025;exitY=0.617;exitDx=0;exitDy=0;exitPerimeter=0;" edge="1" parent="1" source="27">
                    <mxGeometry width="50" height="50" relative="1" as="geometry">
                        <mxPoint x="550" y="140" as="sourcePoint"/>
                        <mxPoint x="530" y="200" as="targetPoint"/>
                    </mxGeometry>
                </mxCell>
                <mxCell id="33" value="" style="endArrow=classic;html=1;fontSize=22;exitX=1;exitY=0.5;exitDx=0;exitDy=0;entryX=0;entryY=0;entryDx=0;entryDy=0;" edge="1" parent="1" source="8" target="25">
                    <mxGeometry width="50" height="50" relative="1" as="geometry">
                        <mxPoint x="890" y="110" as="sourcePoint"/>
                        <mxPoint x="970" y="160" as="targetPoint"/>
                        <Array as="points">
                            <mxPoint x="960" y="120"/>
                        </Array>
                    </mxGeometry>
                </mxCell>
                <mxCell id="34" value="" style="endArrow=classic;html=1;fontSize=22;exitX=0.539;exitY=1;exitDx=0;exitDy=0;exitPerimeter=0;entryX=0.5;entryY=0;entryDx=0;entryDy=0;" edge="1" parent="1" source="25" target="26">
                    <mxGeometry width="50" height="50" relative="1" as="geometry">
                        <mxPoint x="770" y="230" as="sourcePoint"/>
                        <mxPoint x="970" y="250" as="targetPoint"/>
                    </mxGeometry>
                </mxCell>
                <mxCell id="35" value="MainContent" style="whiteSpace=wrap;html=1;shadow=0;fontSize=22;" vertex="1" parent="1">
                    <mxGeometry x="830" y="235" width="140" height="75" as="geometry"/>
                </mxCell>
                <mxCell id="38" value="" style="endArrow=classic;html=1;fontSize=22;exitX=0.908;exitY=1.017;exitDx=0;exitDy=0;exitPerimeter=0;entryX=0.5;entryY=0;entryDx=0;entryDy=0;" edge="1" parent="1" source="8" target="35">
                    <mxGeometry width="50" height="50" relative="1" as="geometry">
                        <mxPoint x="770" y="230" as="sourcePoint"/>
                        <mxPoint x="820" y="180" as="targetPoint"/>
                    </mxGeometry>
                </mxCell>
            </root>
        </mxGraphModel>
    </diagram>
</mxfile>